<?xml version="1.0" encoding="UTF-8"?>
<svg width="120px" height="120px" viewBox="0 0 120 120" version="1.1" xmlns="http://www.w3.org/2000/svg" xmlns:xlink="http://www.w3.org/1999/xlink">
    <!-- Generator: Sketch 43.2 (39069) - http://www.bohemiancoding.com/sketch -->
    <title>back</title>
    <desc>Created with Sketch.</desc>
    <defs>
        <rect id="path-1" x="10" y="10" width="100" height="100" rx="7"></rect>
        <filter x="-7.0%" y="-5.0%" width="114.0%" height="114.0%" filterUnits="objectBoundingBox" id="filter-3">
            <feOffset dx="0" dy="2" in="SourceAlpha" result="shadowOffsetOuter1"></feOffset>
            <feMorphology radius="1" operator="erode" in="SourceAlpha" result="shadowInner"></feMorphology>
            <feOffset dx="0" dy="2" in="shadowInner" result="shadowInner"></feOffset>
            <feComposite in="shadowOffsetOuter1" in2="shadowInner" operator="out" result="shadowOffsetOuter1"></feComposite>
            <feGaussianBlur stdDeviation="2" in="shadowOffsetOuter1" result="shadowBlurOuter1"></feGaussianBlur>
            <feColorMatrix values="0 0 0 0 0   0 0 0 0 0   0 0 0 0 0  0 0 0 0.254444067 0" type="matrix" in="shadowBlurOuter1"></feColorMatrix>
        </filter>
    </defs>
    <g id="Page-1" stroke="none" stroke-width="1" fill="none" fill-rule="evenodd">
        <g id="back">
            <mask id="mask-2" fill="white">
                <use xlink:href="#path-1"></use>
            </mask>
            <g id="Rectangle">
                <use fill="black" fill-opacity="1" filter="url(#filter-3)" xlink:href="#path-1"></use>
                <rect stroke="#979797" stroke-width="1" x="10.5" y="10.5" width="99" height="99" rx="7"></rect>
            </g>
            <g id="avatar" mask="url(#mask-2)">
                <g transform="translate(-15.000000, 10.000000)" id="bg">
                    <g>
                        <rect id="path-1" fill="#FFFFFF" fill-rule="nonzero" x="25" y="0" width="100" height="100" rx="1"></rect>
                        <g id="Rectangle" transform="translate(0.000000, 20.000000)" fill-rule="nonzero">
                            <path d="M137.388193,74.0337057 L137.388193,74.0052339 L137.388196,74.0052177 C123.183617,80.0422798 107.567934,83.3824081 91.1765749,83.3869584 C91.1877558,83.3869611 91.1989367,83.3869631 91.2101176,83.3869631 C107.587914,83.3869631 123.191848,80.056899 137.388193,74.0337057 Z M68.7276386,113 L1.35644006e-07,113 L1.35644006e-07,40.5923849 C20.1152712,64.7321795 49.548033,80.7618174 82.7379559,83.092828 C67.8579835,89.8320988 51.3491309,93.5823389 33.9687733,93.5823389 C22.1892985,93.5823389 10.8101408,91.8597031 0.0670840787,88.6514079 L0.0670842143,88.6514093 L0.0670842143,113 L68.7276386,113 Z" id="Combined-Shape" fill="#7AD04C"></path>
                            <path d="M150,67.7700853 L150,0.0374297667 L150,0.0374295644 C140.034755,45.3604889 104.451636,81.0114307 59.2959632,90.8637295 C67.4572413,89.0830592 75.3058269,86.459659 82.7469888,83.0887368 C85.5424562,83.2864403 88.3646069,83.3869631 91.2101176,83.3869631 C112.596692,83.3869631 132.663688,77.7085877 150,67.7700853 Z" id="Combined-Shape" fill="#F64386"></path>
                        </g>
                    </g>
                </g>
            </g>
            <g id="logo" opacity="0.141700634" mask="url(#mask-2)">
                <g transform="translate(20.000000, 20.000000)">
                    <rect id="bounds" fill="none" x="0" y="0" width="80" height="80"></rect>
                    <path d="M18.96156,30.8595387 C21.3607914,30.8595387 22.5937973,32.2837682 22.5937973,34.775928 L22.5937973,35.2655067 L20.2620779,35.2655067 L20.2620779,34.6203947 C20.2620779,33.5074735 19.8136235,33.0846554 19.0288282,33.0846554 C18.2442766,33.0846554 17.7958221,33.5074735 17.7958221,34.6203947 C17.7958221,37.8246691 22.61622,38.4252741 22.61622,42.8759912 C22.61622,45.3681507 21.3607914,46.7923802 18.9391373,46.7923802 C16.517727,46.7923802 15.2620545,45.3681507 15.2620545,42.8759912 L15.2620545,41.9190869 L17.5940176,41.9190869 L17.5940176,43.0315244 C17.5940176,44.1442036 18.0870738,44.5447682 18.8718691,44.5447682 C19.6566644,44.5447682 20.1499643,44.1442036 20.1499643,43.0315244 C20.1499643,39.8272499 15.3293227,39.2266451 15.3293227,34.775928 C15.3293227,32.2837682 16.5623287,30.8595387 18.96156,30.8595387 Z M27.0176577,34.7760004 C27.0176577,32.2835989 28.3405983,30.8596114 30.7620086,30.8596114 C33.1836627,30.8596114 34.5063596,32.2835989 34.5063596,34.7760004 L34.5063596,42.8758219 C34.5063596,45.3682234 33.1836627,46.7924528 30.7620086,46.7924528 C28.3405983,46.7924528 27.0176577,45.3682234 27.0176577,42.8758219 L27.0176577,34.7760004 Z M29.4841573,43.0315968 C29.4841573,44.1442762 29.9772135,44.5670943 30.7620086,44.5670943 C31.546804,44.5670943 32.0401038,44.1442762 32.0401038,43.0315968 L32.0401038,34.6204674 C32.0401038,33.5075461 31.546804,33.084728 30.7620086,33.084728 C29.9772135,33.084728 29.4841573,33.5075461 29.4841573,34.6204674 L29.4841573,43.0315968 Z M38.9434371,31.0376884 L42.8447472,31.0376884 C45.3112465,31.0376884 46.5220735,32.3949152 46.5220735,34.8873168 L46.5220735,42.7646023 C46.5220735,45.2570038 45.3112465,46.6142307 42.8447472,46.6142307 L38.9434371,46.6142307 L38.9434371,31.0376884 Z M41.4096928,33.2628051 L41.4096928,44.3891139 L42.7999017,44.3891139 C43.5846968,44.3891139 44.0553303,43.9885495 44.0553303,42.8758701 L44.0553303,34.7760488 C44.0553303,33.6633697 43.5846968,33.2628051 42.7999017,33.2628051 L41.4096928,33.2628051 Z M51.1090629,46.6142065 L51.1090629,31.0376642 L53.5753187,31.0376642 L53.5753187,46.6142065 L51.1090629,46.6142065 Z M60.6796764,37.9581181 L63.8634594,37.9581181 L63.8634594,40.1832347 L60.6796764,40.1832347 L60.6796764,46.6142789 L58.2134206,46.6142789 L58.2134206,31.0377368 L64.7379455,31.0377368 L64.7379455,33.2628535 L60.6796764,33.2628535 L60.6796764,37.9581181 Z" id="Combined-Shape" fill="#000000" fill-rule="nonzero"></path>
                    <path d="M38.8534126,62.085692 C40.7177206,61.2570589 42.4406817,60.1265112 43.938788,58.7350646 C44.0155377,58.6636783 44.1351029,58.6682543 44.2066145,58.7455897 C44.2776705,58.822696 44.272888,58.9432749 44.1961383,59.0146613 C42.8409284,60.2731019 41.3054032,61.3220573 39.6493802,62.1331154 C39.8844644,62.142064 40.1199615,62.1465556 40.3557413,62.1465556 C43.5580459,62.1465556 46.7157128,61.3160025 49.4868985,59.7443583 C49.5850562,59.688988 49.7087211,59.7237661 49.7640627,59.8219223 C49.8191766,59.9200785 49.7847874,60.044776 49.6868575,60.1003749 C46.8546364,61.7063396 43.6279634,62.5551968 40.3557413,62.5551968 C37.0131465,62.5551968 33.7256659,61.6713328 30.8488069,59.9992442 C30.7515604,59.9427299 30.7183099,59.8178038 30.7745625,59.7201053 C30.8308152,59.6224065 30.9551634,59.5890013 31.0524099,59.6455156 C33.4351389,61.0305573 36.1056701,61.8627248 38.8534126,62.085692 Z M46.4707516,55.8596122 C46.4115383,55.8147669 46.3675838,55.7568798 46.3534636,55.7044842 C46.3049543,55.5223573 46.3188465,55.3841606 46.3999234,55.2995038 C46.4404617,55.2569465 46.4955758,55.2299478 46.5627602,55.2164484 C46.7217253,55.1851025 47.0464878,55.4306076 47.0603802,55.5925998 C47.0660737,55.6612404 47.0555975,55.7221019 47.0262187,55.772896 C46.9674608,55.8744844 46.8392411,55.9264225 46.6515802,55.9298545 C46.5976048,55.9307697 46.5299651,55.9044575 46.4707516,55.8596122 Z M45.8668893,55.5702914 C45.8026655,55.5565634 45.7284211,55.5149213 45.6685244,55.4577206 C45.4537621,55.2534 45.3016293,55.0534265 45.2314842,54.8740455 C45.1957284,54.7829821 45.1834303,54.7026724 45.1916291,54.6335741 C45.2107594,54.4706667 45.5981516,54.5923897 45.7746531,54.80632 C45.8473032,54.8944088 45.9060611,54.9820402 45.9481937,55.0687564 C46.0313202,55.2394429 46.0443015,55.3934272 45.9921482,55.5291069 C45.9768895,55.5684611 45.9302019,55.5837907 45.8668893,55.5702914 Z M45.3593166,55.6453158 C45.3215112,55.6764328 45.2474945,55.6782634 45.1589023,55.6485189 C44.8277627,55.5375499 44.5045945,55.373956 44.2240141,55.1618562 C44.0759808,55.0499718 43.9504939,54.932596 43.8486926,54.8131611 C43.6009074,54.5223531 43.9716741,54.4047486 44.3595217,54.6122726 C44.5107436,54.6932686 44.6519446,54.7825017 44.7815309,54.8804291 C45.0268109,55.0659878 45.2162937,55.2725966 45.3552173,55.4959078 C45.3946171,55.5595149 45.3962112,55.6148851 45.3593166,55.6453158 Z M45.2700413,56.1340836 C45.2928156,56.2027244 45.2693579,56.2635859 45.2033122,56.2967623 C44.9486947,56.4248916 44.613456,56.4850667 44.2035173,56.4461703 C43.9730406,56.4244341 43.7345928,56.3727246 43.4934122,56.2937878 C42.8591461,56.0855775 42.8473034,55.5323331 43.4141575,55.5105968 C43.6211766,55.5025888 43.8286512,55.5167745 44.0363533,55.5536118 C44.4082589,55.6195069 44.7610339,55.7558731 45.0917179,55.9450928 C45.1819044,55.9965735 45.2474945,56.0665869 45.2700413,56.1340836 Z M45.7774771,56.7844318 C45.8553653,56.8432341 45.909796,56.9276623 45.9232331,57.0134632 C45.9744754,57.3427099 45.9339368,57.6630335 45.7683672,57.9499518 C45.6724872,58.1158337 45.5394848,58.2634112 45.3704989,58.3910829 C44.8945145,58.7503029 44.1413661,58.1810423 44.3533954,57.6220779 C44.4285509,57.4234773 44.5328575,57.2543922 44.6651766,57.1157379 C44.8936036,56.8764105 45.1889872,56.7487387 45.5180768,56.7070966 C45.6037084,56.6963429 45.6995886,56.7256297 45.7774771,56.7844318 Z M46.5400086,57.094528 C46.6108368,57.0975023 46.6957853,57.1414324 46.7702575,57.2144204 C47.0426389,57.4814328 47.2706105,57.7841385 47.4368634,58.1250543 C47.5295552,58.3154181 47.6003834,58.5117305 47.6502592,58.7135343 C47.7862223,59.2670076 47.2537575,59.4086364 46.8791189,58.8540192 C46.7365514,58.6430632 46.6213131,58.4270737 46.5365924,58.2106265 C46.3858261,57.8255518 46.3507535,57.4853225 46.4029067,57.2038956 C46.4163438,57.1311362 46.4678137,57.0915535 46.5400086,57.094528 Z M46.9830156,56.8732758 C47.0019183,56.8291171 47.0552103,56.8153888 47.1269497,56.8359811 C47.3790619,56.9082827 47.6291246,57.0338952 47.8746324,57.2192253 C48.0042185,57.3173815 48.1285665,57.4288084 48.248132,57.5525905 C48.5537642,57.8694819 48.5439712,58.2600478 48.1971175,58.1012589 C48.0547777,58.0360501 47.9078829,57.9475036 47.7596217,57.8353903 C47.4792693,57.6235194 47.2333061,57.3567356 47.0353966,57.0677581 C46.9825602,56.9904227 46.9636575,56.9183499 46.9830156,56.8732758 Z M46.9145103,56.3625659 C46.8839926,56.3051364 46.8858145,56.2559438 46.9192931,56.2303181 C47.0345314,56.1422291 47.1855255,56.112256 47.371592,56.1452036 C47.4663335,56.1619061 47.5665406,56.1941672 47.6706196,56.2399278 C47.9240983,56.3511257 48.1477427,56.6915838 47.997204,56.7551909 C47.9334358,56.7821897 47.8534977,56.7924857 47.7564789,56.7833337 C47.5651741,56.7652583 47.3319646,56.6735084 47.0771194,56.5229564 C47.0058356,56.4808568 46.9454836,56.4209105 46.9145103,56.3625659 Z M46.7048949,56.7089042 C46.5762198,56.8807349 46.2220783,56.8315423 45.9143964,56.5988501 C45.6064869,56.3661581 45.4614143,56.0378265 45.5903173,55.8659958 C45.7189924,55.6941651 46.0729061,55.7435865 46.380588,55.9762785 C46.6884975,56.2089707 46.8335701,56.5370735 46.7048949,56.7089042 Z M37.2642341,62.7079912 C37.5320606,62.7521501 37.8012539,62.7887585 38.0711301,62.8214773 C37.2947518,63.1182341 36.4976486,63.3655695 35.6846036,63.5589076 C35.670028,63.5623396 35.6552246,63.5639413 35.6408768,63.5639413 C35.5550173,63.5639413 35.4773568,63.5051392 35.456632,63.4175078 C35.4324912,63.3152331 35.4955762,63.2127295 35.5973777,63.1884764 C36.1612712,63.0543981 36.7174215,62.8933213 37.2642341,62.7079912 Z M52.8432036,57.3536238 C52.7905947,57.2900168 52.7577996,57.2161135 52.7559777,57.1557097 C52.7498286,56.9463554 52.80016,56.8003794 52.9092493,56.7296794 C52.9639076,56.6942152 53.0304088,56.6791141 53.1064752,56.6820886 C53.2863928,56.6887238 53.574944,57.0376476 53.5485259,57.2165712 C53.5375941,57.2923048 53.5104926,57.3552255 53.4658549,57.4028164 C53.3765794,57.4975406 53.2246743,57.5204208 53.0208436,57.4760333 C52.9623135,57.4632202 52.8958122,57.4172309 52.8432036,57.3536238 Z M52.2639373,56.8855625 C52.1978916,56.8542166 52.1284297,56.790152 52.0780983,56.7128166 C51.8979531,56.436652 51.7843091,56.1815373 51.7542467,55.9692086 C51.7387602,55.8616714 51.7458202,55.771752 51.7722385,55.6992217 C51.8344126,55.5280775 52.222488,55.759168 52.3589065,56.0357901 C52.4149314,56.1497337 52.4559253,56.2595589 52.4796105,56.3643505 C52.5260703,56.570044 52.5007907,56.7398154 52.4096933,56.8732072 C52.3832749,56.9118749 52.329072,56.9164509 52.2639373,56.8855625 Z M51.6960356,56.8362328 C51.6472983,56.8600282 51.5666771,56.8430968 51.4783126,56.7881842 C51.1487674,56.5831773 50.8408579,56.3230288 50.5917061,56.0216958 C50.4600703,55.8624493 50.3543973,55.7034316 50.2746869,55.5480747 C50.0806493,55.1698642 50.5117682,55.1380606 50.87798,55.4620451 C51.0210032,55.5885728 51.1510448,55.7215069 51.2660554,55.8606189 C51.4842339,56.1244282 51.6363667,56.3964743 51.7295139,56.6735541 C51.7561598,56.7524912 51.7436339,56.8128949 51.6960356,56.8362328 Z M51.4750331,57.3417491 C51.4823208,57.4220587 51.4410992,57.4815474 51.3613888,57.5005379 C51.0534794,57.5735259 50.6758802,57.552476 50.2422562,57.4051274 C49.9987981,57.3223008 49.7539737,57.2051539 49.5134762,57.0575762 C48.8805764,56.6695274 49.0085684,56.0682343 49.6271204,56.1904149 C49.8530421,56.2350314 50.0737259,56.303672 50.2889436,56.3970236 C50.6742861,56.5638204 51.020912,56.802004 51.3304158,57.0914392 C51.4146808,57.170376 51.4679731,57.2628122 51.4750331,57.3417491 Z M51.8580524,58.1753909 C51.9272865,58.2591326 51.9646364,58.3643817 51.9571211,58.4607076 C51.9288806,58.8297661 51.8036217,59.165648 51.5512817,59.4333469 C51.4052979,59.5880175 51.2240139,59.7134013 51.008796,59.8078966 C50.4025423,60.0739939 49.7334312,59.2649484 50.1048813,58.7149072 C50.2367448,58.5197387 50.3927493,58.3634665 50.5708448,58.2476924 C50.8789821,58.0477192 51.2308461,57.9854848 51.5970581,58.0250676 C51.6927105,58.0355926 51.7888183,58.0916493 51.8580524,58.1753909 Z M52.6035716,58.7066931 C52.6794101,58.7282006 52.7600316,58.7975278 52.8219777,58.8954552 C53.0485827,59.2542175 53.2180242,59.6399785 53.3107158,60.0513655 C53.3624137,60.2810832 53.3892874,60.5114872 53.3915648,60.7428065 C53.3979417,61.3761318 52.7857665,61.3923768 52.5220394,60.6961307 C52.421832,60.4316352 52.3519147,60.1682836 52.3154758,59.9124823 C52.2507964,59.4573941 52.2995337,59.0805564 52.4272979,58.7897484 C52.4605484,58.7144724 52.5263663,58.6849568 52.6035716,58.7066931 Z M53.1389286,58.5813322 C53.1705851,58.5385461 53.2318482,58.5371735 53.3042707,58.5779002 C53.5582048,58.7209019 53.7966526,58.921104 54.0148312,59.1846844 C54.1300695,59.3240253 54.2361981,59.4766364 54.3336724,59.6409166 C54.5835072,60.0621421 54.4735069,60.4819945 54.1389514,60.2211598 C54.0016219,60.1140802 53.8652036,59.9806884 53.7335676,59.8214417 C53.484416,59.5201088 53.2862789,59.1684394 53.1459888,58.8051011 C53.1084112,58.70786 53.1065891,58.6250335 53.1389286,58.5813322 Z M53.1949309,58.0115225 C53.1767114,57.9415091 53.1910594,57.8888844 53.2338752,57.8696651 C53.3807699,57.8042276 53.5518053,57.8104051 53.7444766,57.8939181 C53.8426341,57.9364754 53.9426137,57.997108 54.0437318,58.0732992 C54.2894674,58.2588581 54.4445608,58.6844307 54.2657819,58.7144038 C54.1897156,58.7272168 54.1006678,58.7178358 53.9981829,58.6828291 C53.7959465,58.6141882 53.5670642,58.4551705 53.3297552,58.2268257 C53.2634817,58.1629899 53.2133781,58.0824514 53.1949309,58.0115225 Z M52.8800752,58.3321206 C52.6971971,58.4847318 52.3268857,58.3405863 52.0533655,58.0099667 C51.7798453,57.6791183 51.7065118,57.2869507 51.8896177,57.1343396 C52.072496,56.9817282 52.4425796,57.1258739 52.7160998,57.4567223 C52.98962,57.7873419 53.0629535,58.1795093 52.8800752,58.3321206 Z M48.3572594,62.360404 C48.0300758,61.6028745 47.2409383,61.3875444 46.5946899,61.8793779 C46.9218735,62.6367036 47.7110109,62.8520335 48.3572594,62.360404 Z M41.8166947,58.6985935 C41.1102335,58.9745293 40.8845396,59.6973164 41.3124701,60.3132528 C42.0189312,60.0375457 42.2446251,59.3145299 41.8166947,58.6985935 Z" id="Combined-Shape" fill="#000000" fill-rule="nonzero" transform="translate(42.608632, 59.035639) rotate(-1.000000) translate(-42.608632, -59.035639) "></path>
                    <path d="M37.4122806,15.5728894 L37.1124328,15.6150565 L37.3427322,17.1633322 C37.3671888,17.3300162 37.3353444,17.4766088 37.2500011,17.5872353 C37.1605817,17.7035668 37.0120589,17.7792195 36.8199728,17.8062561 C36.4391124,17.8598331 36.1866493,17.680499 36.1346789,17.3334887 L35.9048891,15.785213 L35.6050411,15.8273801 L35.8353406,17.3759039 C35.901832,17.8248592 36.2304672,18.103906 36.6931042,18.103906 C36.7481316,18.103906 36.8049421,18.0999373 36.8625171,18.0915039 C37.1269539,18.0545457 37.3412038,17.942927 37.4818291,17.7690498 C37.6237282,17.5936844 37.6792651,17.3697028 37.6420707,17.1209171 L37.4122806,15.5728894 Z M47.1284225,17.2756951 C47.0405318,17.5708646 46.7725282,17.7134885 46.4624901,17.62717 C46.308108,17.5835147 46.1921939,17.4989325 46.1274859,17.3821049 C46.0637968,17.2675097 46.0530971,17.1298466 46.0964057,16.9842462 C46.1662088,16.7493508 46.3465762,16.6092072 46.5786589,16.6092072 C46.6364886,16.6092072 46.6966109,16.6178887 46.7580072,16.6350036 C47.0672811,16.7223142 47.2163135,16.9797814 47.1284225,17.2756951 L47.1284225,17.2756951 Z M46.8402935,16.3579411 C46.7518931,16.3328889 46.6629832,16.3204868 46.5758566,16.3204868 C46.205696,16.3204868 45.90916,16.5429801 45.8024173,16.9014003 C45.6689251,17.3503556 45.9117076,17.7720263 46.380204,17.9042325 C46.4166341,17.9144022 46.4538284,17.9228356 46.4912777,17.9287886 L45.7094312,18.5543496 L46.0485116,18.6495975 L47.1317343,17.7836843 C47.2700669,17.6767783 47.3666194,17.5334103 47.4190992,17.3575488 C47.4843168,17.1387761 47.4613886,16.9182671 47.3546459,16.7359565 C47.2491768,16.5561263 47.0665168,16.4219358 46.8402935,16.3579411 L46.8402935,16.3579411 Z M40.8387499,16.4965964 C40.5083312,16.3787766 40.3218497,16.3013876 40.3289829,16.0779021 C40.3363709,15.8593775 40.5121526,15.7182418 40.7776084,15.7182418 L40.8010459,15.7187379 C41.1217838,15.7289076 41.2639377,15.9246124 41.3266078,16.0870797 L41.3520834,16.1523146 L41.6180486,16.0191163 L41.5976682,15.9670275 C41.4697806,15.6423411 41.1752825,15.4416754 40.8102173,15.4302655 L40.7781179,15.4297694 C40.3457968,15.4297694 40.0349945,15.6951739 40.0227661,16.0749256 C40.0084998,16.5099906 40.3786604,16.6397164 40.7804107,16.780356 C41.1526093,16.9085935 41.3283909,17.007066 41.3215126,17.2221181 C41.3136152,17.4562693 41.1273884,17.5959168 40.8227002,17.5959168 L40.7895819,17.5954207 C40.4581442,17.585251 40.2375255,17.4329534 40.1684865,17.1663087 L40.1486156,17.0886717 L39.8762815,17.2332799 L39.8905478,17.281152 C39.9980547,17.644781 40.3307663,17.8702508 40.780156,17.8838931 L40.8214265,17.8846372 C41.2983299,17.8846372 41.6147368,17.626922 41.6277295,17.2283191 C41.6422505,16.7828364 41.2155341,16.6307869 40.8387499,16.4965964 L40.8387499,16.4965964 Z M44.0777185,16.0039857 L44.1019204,16.279808 L44.6392008,16.22003 L44.2394886,18.229415 L44.5367891,18.2854724 L45.0017187,15.9486724 L44.7823739,15.9077456 L44.0777185,16.0039857 Z M38.599444,15.4937641 L38.7258029,17.8724832 L39.0284533,17.8573526 L38.9018394,15.4786336 L38.599444,15.4937641 Z M34.4191516,17.2134366 C34.3575006,17.3186063 34.2510126,17.3954992 34.1193036,17.4297289 L33.5889015,17.5683841 L33.3359286,16.6511263 L33.8660762,16.512223 C34.1371366,16.4422752 34.3860333,16.5848992 34.4594029,16.8507998 C34.4950688,16.9795334 34.4805478,17.108267 34.4191516,17.2134366 L34.4191516,17.2134366 Z M34.0112872,16.2078759 C33.938172,16.2078759 33.8635286,16.2175495 33.7901587,16.2368968 L32.9672966,16.4519489 L33.6016394,18.7522868 L33.8940994,18.6758899 L33.6648187,17.8439584 L34.1949661,17.7053031 C34.4059042,17.6502379 34.5783741,17.5252249 34.6805314,17.353084 C34.7824337,17.1816873 34.8076545,16.9763088 34.7521177,16.774403 C34.6573484,16.4301212 34.3664171,16.2078759 34.0112872,16.2078759 L34.0112872,16.2078759 Z M29.5125497,20.1152754 L28.9559076,20.4054841 L28.0782728,18.8095844 L28.6351697,18.5193757 C28.7622928,18.4529005 28.8955303,18.4196629 29.0318248,18.4196629 C29.3528175,18.4196629 29.6582701,18.6126393 29.8292114,18.9236835 C30.0832032,19.3860331 29.9502204,19.8873252 29.5125497,20.1152754 L29.5125497,20.1152754 Z M29.0346272,18.133671 C28.8486552,18.133671 28.6677785,18.1788145 28.4968371,18.2676135 L27.672956,18.6972215 L28.8270011,20.7966457 L29.6508821,20.3670376 C30.2319806,20.0639308 30.4225383,19.3842968 30.0933935,18.7860204 C29.8722651,18.3836969 29.4666935,18.133671 29.0346272,18.133671 L29.0346272,18.133671 Z M51.6373503,19.0330699 C51.5683114,19.1583309 51.4523975,19.2272864 51.3104983,19.2272864 C51.2277025,19.2272864 51.1390474,19.2037225 51.0537042,19.159075 C50.8549943,19.0553936 50.7115667,18.8470387 50.8389448,18.6158639 C50.9105312,18.485394 51.0231335,18.4166865 51.1637587,18.4166865 C51.2462998,18.4166865 51.3362286,18.4409945 51.4243741,18.4868822 C51.5420716,18.5481485 51.6248672,18.6304983 51.6640996,18.7250022 C51.7051154,18.8232267 51.6959442,18.92666 51.6373503,19.0330699 L51.6373503,19.0330699 Z M51.1767514,20.0187872 C51.0516661,20.2462414 50.7997122,20.2896487 50.5133665,20.1395835 C50.3689198,20.0641788 50.2688006,19.9686828 50.2231994,19.862769 C50.1783623,19.7580955 50.1872787,19.647717 50.2502034,19.534362 C50.3248469,19.3986832 50.4433086,19.3269992 50.5925956,19.3269992 C50.6911863,19.3269992 50.7986933,19.3570122 50.9120598,19.4162941 C51.0565065,19.4916988 51.1566255,19.5874429 51.2024817,19.6931086 C51.2473187,19.7972861 51.2386571,19.9069204 51.1767514,20.0187872 L51.1767514,20.0187872 Z M51.5644901,18.2323915 C51.433036,18.163684 51.2921558,18.127718 51.1573899,18.127718 C50.9036528,18.127718 50.6960265,18.2514907 50.5717057,18.4762164 C50.4705674,18.6600153 50.46802,18.8639055 50.5610059,19.0496887 C50.3070141,19.057874 50.0963307,19.1821429 49.9799074,19.3932263 C49.875712,19.5827301 49.8627196,19.7806673 49.9429676,19.9657063 C50.0173564,20.1378472 50.1661339,20.285928 50.3732507,20.3940742 C50.5286518,20.4754318 50.6906766,20.518343 50.8412375,20.518343 C51.1041459,20.518343 51.3194147,20.3910977 51.4470476,20.1596748 C51.5639806,19.9473512 51.5522617,19.7072469 51.4197886,19.4983959 C51.6304718,19.4708633 51.8037059,19.3552759 51.9045895,19.1724692 C52.1287747,18.765681 51.8854827,18.4000677 51.5644901,18.2323915 L51.5644901,18.2323915 Z M31.6145419,19.1491533 L31.3266676,18.4293366 L32.3143568,18.0550418 L32.2083783,17.7893892 L31.2206891,18.1631879 L30.9402025,17.4614782 L32.0050829,17.0579145 L31.8983402,16.792262 L30.5516996,17.3027316 L31.4385055,19.5217118 L32.8009411,19.0055372 L32.6949625,18.7398847 L31.6145419,19.1491533 Z M49.0834206,18.4831616 C49.1353909,18.604454 49.1318242,18.7421171 49.0734853,18.8822606 C48.9570617,19.1620515 48.6696968,19.278383 48.3754535,19.1622995 C48.0789175,19.0449759 47.9591821,18.7743625 48.0781533,18.4891146 C48.1657893,18.2790234 48.3357116,18.1584751 48.5438474,18.1584751 C48.6184907,18.1584751 48.6959366,18.1741018 48.7744015,18.2048589 C48.9236886,18.2641409 49.0301766,18.360133 49.0834206,18.4831616 L49.0834206,18.4831616 Z M49.2974158,17.2310476 L48.1252832,17.9821176 C47.9765055,18.0746371 47.8651771,18.2075874 47.7946097,18.3772478 C47.706464,18.5883312 47.7059545,18.8100804 47.7925716,19.0018166 C47.8784244,19.1913204 48.0460539,19.3433699 48.2643798,19.4294404 C48.3792749,19.474832 48.496208,19.4978998 48.6113577,19.4978998 C48.9448333,19.4978998 49.2222627,19.3091402 49.3539716,18.9928871 C49.4426267,18.7805635 49.4436457,18.5578221 49.3570286,18.3658379 C49.2714305,18.1758381 49.1040558,18.0240366 48.8854752,17.9377181 C48.8510832,17.9240758 48.8166909,17.9129139 48.78128,17.9032403 L49.6247773,17.3600292 L49.2974158,17.2310476 Z" id="Fill-1" fill="#000000" fill-rule="nonzero"></path>
                </g>
            </g>
        </g>
    </g>
</svg>