<?xml version="1.0" encoding="UTF-8"?>
<svg width="380px" height="380px" viewBox="0 0 380 380" version="1.1" xmlns="http://www.w3.org/2000/svg" xmlns:xlink="http://www.w3.org/1999/xlink">
    <!-- Generator: Sketch 42 (36781) - http://www.bohemiancoding.com/sketch -->
    <title>logo</title>
    <desc>Created with Sketch.</desc>
    <defs></defs>
    <g id="Page-1" stroke="none" stroke-width="1" fill="none" fill-rule="evenodd">
        <g id="slide" transform="translate(-489.000000, -194.000000)">
            <g id="logo" transform="translate(489.000000, 194.000000)">
                <rect id="bounds" x="0" y="0" width="380" height="380"></rect>
                <path d="M90.06741,146.582809 C101.463759,146.582809 107.320537,153.347899 107.320537,165.185658 L107.320537,167.511157 L96.24487,167.511157 L96.24487,164.446875 C96.24487,159.160499 94.1147114,157.152113 90.3869338,157.152113 C86.6603138,157.152113 84.5301552,159.160499 84.5301552,164.446875 C84.5301552,179.667178 107.427045,182.520052 107.427045,203.660958 C107.427045,215.498716 101.463759,222.263806 89.960902,222.263806 C78.4592031,222.263806 72.4947589,215.498716 72.4947589,203.660958 L72.4947589,199.115663 L83.5715838,199.115663 L83.5715838,204.399741 C83.5715838,209.684967 85.9136006,211.587649 89.6413782,211.587649 C93.3691558,211.587649 95.7123303,209.684967 95.7123303,204.399741 C95.7123303,189.179437 72.8142827,186.326564 72.8142827,165.185658 C72.8142827,153.347899 78.6710613,146.582809 90.06741,146.582809 Z M128.333874,165.186002 C128.333874,153.347095 134.617842,146.583154 146.119541,146.583154 C157.622398,146.583154 163.905208,153.347095 163.905208,165.186002 L163.905208,203.660154 C163.905208,215.499061 157.622398,222.264151 146.119541,222.264151 C134.617842,222.264151 128.333874,215.499061 128.333874,203.660154 L128.333874,165.186002 Z M140.049747,204.400085 C140.049747,209.685312 142.391764,211.693698 146.119541,211.693698 C149.847319,211.693698 152.190493,209.685312 152.190493,204.400085 L152.190493,164.44722 C152.190493,159.160844 149.847319,157.152458 146.119541,157.152458 C142.391764,157.152458 140.049747,159.160844 140.049747,164.44722 L140.049747,204.400085 Z M184.981326,147.42902 L203.512549,147.42902 C215.228421,147.42902 220.979849,153.875847 220.979849,165.714755 L220.979849,203.131861 C220.979849,214.970768 215.228421,221.417596 203.512549,221.417596 L184.981326,221.417596 L184.981326,147.42902 Z M196.696041,157.998324 L196.696041,210.848291 L203.299533,210.848291 C207.02731,210.848291 209.262819,208.94561 209.262819,203.660383 L209.262819,165.186232 C209.262819,159.901006 207.02731,157.998324 203.299533,157.998324 L196.696041,157.998324 Z M242.768049,221.417481 L242.768049,147.428905 L254.482764,147.428905 L254.482764,221.417481 L242.768049,221.417481 Z M288.228463,180.301061 L303.351432,180.301061 L303.351432,190.870365 L288.228463,190.870365 L288.228463,221.417825 L276.513748,221.417825 L276.513748,147.42925 L307.505241,147.42925 L307.505241,157.998554 L288.228463,157.998554 L288.228463,180.301061 Z" id="Combined-Shape" fill="#370316"></path>
                <path d="M184.55371,294.907037 C193.409173,290.97103 201.593238,285.600928 208.709243,278.991557 C209.073804,278.652472 209.641739,278.674208 209.981419,279.041551 C210.318935,279.407806 210.296218,279.980556 209.931657,280.319641 C203.49441,286.297234 196.200665,291.279772 188.334556,295.132298 C189.451206,295.174804 190.569817,295.196139 191.689771,295.196139 C206.900718,295.196139 221.899636,291.251012 235.062768,283.785702 C235.529017,283.522693 236.116425,283.687889 236.379298,284.154131 C236.641089,284.620373 236.47774,285.212686 236.012573,285.476781 C222.559523,293.105113 207.232826,297.137185 191.689771,297.137185 C175.812446,297.137185 160.196913,292.938831 146.531833,284.99641 C146.069912,284.727967 145.911972,284.134568 146.179172,283.6705 C146.446372,283.206431 147.037026,283.047756 147.498947,283.316199 C158.81691,289.895147 171.501933,293.847943 184.55371,294.907037 Z M220.73607,265.333158 C220.454807,265.120143 220.246023,264.845179 220.178952,264.5963 C219.948533,263.731197 220.014521,263.074763 220.399636,262.672643 C220.592193,262.470496 220.853985,262.342252 221.173111,262.27813 C221.928195,262.129237 223.470817,263.295386 223.536806,264.064849 C223.56385,264.390892 223.514088,264.679984 223.374539,264.921256 C223.095439,265.403801 222.486395,265.650507 221.595006,265.666809 C221.338623,265.671156 221.017334,265.546173 220.73607,265.333158 Z M217.867724,263.958884 C217.562661,263.893676 217.21,263.695876 216.925491,263.424173 C215.90537,262.45365 215.182739,261.503776 214.84955,260.651716 C214.67971,260.219165 214.621294,259.837694 214.660238,259.509477 C214.751107,258.735667 216.59122,259.313851 217.429602,260.33002 C217.77469,260.748442 218.05379,261.164691 218.25392,261.576593 C218.648771,262.387354 218.710432,263.118779 218.462704,263.763258 C218.390225,263.95019 218.168459,264.023006 217.867724,263.958884 Z M215.456754,264.31525 C215.277178,264.463056 214.925599,264.471751 214.504786,264.330465 C212.931873,263.803362 211.396824,263.026291 210.064067,262.018817 C209.360909,261.487366 208.764846,260.929831 208.28129,260.362515 C207.10431,258.981177 208.865452,258.422556 210.707728,259.408295 C211.426032,259.793026 212.096737,260.216883 212.712272,260.682038 C213.877352,261.563442 214.777395,262.544834 215.437282,263.605562 C215.624431,263.907696 215.632003,264.170704 215.456754,264.31525 Z M215.032696,266.636897 C215.140874,266.962941 215.02945,267.252033 214.715733,267.409621 C213.5063,268.018235 211.913916,268.304067 209.966707,268.119309 C208.871943,268.016062 207.739316,267.770442 206.593708,267.395492 C203.580944,266.406493 203.524691,263.778582 206.217248,263.675335 C207.200589,263.637297 208.186093,263.704679 209.172678,263.879656 C210.93923,264.192658 212.614911,264.840397 214.18566,265.739191 C214.614046,265.983724 214.925599,266.316288 215.032696,266.636897 Z M217.443016,269.726051 C217.812985,270.005362 218.071531,270.406396 218.135357,270.81395 C218.378758,272.377872 218.1862,273.899409 217.399744,275.262271 C216.944314,276.05021 216.312553,276.751203 215.50987,277.357644 C213.248944,279.063939 209.671489,276.359951 210.678628,273.70487 C211.035617,272.761517 211.531073,271.958363 212.159589,271.299755 C213.244617,270.16295 214.647689,269.556509 216.210865,269.358709 C216.617615,269.307629 217.073046,269.446741 217.443016,269.726051 Z M221.065041,271.199008 C221.401475,271.213136 221.80498,271.421804 222.158723,271.768497 C223.452535,273.036806 224.5354,274.474658 225.325101,276.094008 C225.765387,276.998236 226.101821,277.93072 226.338731,278.889288 C226.984556,281.518286 224.455348,282.191023 222.675815,279.556591 C221.998619,278.55455 221.451237,277.5286 221.048814,276.500476 C220.332674,274.671371 220.166079,273.055282 220.413807,271.718504 C220.477633,271.372897 220.722115,271.184879 221.065041,271.199008 Z M223.169324,270.14806 C223.259112,269.938306 223.512249,269.873097 223.853011,269.97091 C225.050544,270.314343 226.238342,270.911002 227.404504,271.79132 C228.020038,272.257562 228.610691,272.78684 229.178627,273.374805 C230.63038,274.880039 230.583863,276.735227 228.936308,275.98098 C228.260194,275.671238 227.562444,275.250642 226.858203,274.718104 C225.526529,273.711717 224.358204,272.444494 223.418134,271.071851 C223.167161,270.704508 223.077373,270.362162 223.169324,270.14806 Z M222.843924,267.722188 C222.698965,267.449398 222.707619,267.215733 222.866642,267.094011 C223.414024,266.675588 224.131246,266.533216 225.015062,266.689717 C225.465084,266.769054 225.941068,266.922294 226.435443,267.139657 C227.639467,267.667847 228.701778,269.285023 227.986719,269.587157 C227.68382,269.715401 227.304114,269.764307 226.843275,269.720835 C225.934577,269.634977 224.826832,269.199165 223.616317,268.484043 C223.277719,268.28407 222.991047,267.999325 222.843924,267.722188 Z M221.848251,269.367295 C221.237044,270.183491 219.554872,269.949826 218.093383,268.844538 C216.630813,267.739251 215.941718,266.179676 216.554007,265.36348 C217.165214,264.547284 218.846304,264.782036 220.307793,265.887323 C221.770363,266.992611 222.459458,268.551099 221.848251,269.367295 Z M177.005112,297.862958 C178.277288,298.072713 179.555956,298.246603 180.837868,298.402017 C177.150071,299.811612 173.363831,300.986455 169.501867,301.904811 C169.432633,301.921113 169.362317,301.928721 169.294165,301.928721 C168.886332,301.928721 168.517445,301.649411 168.419002,301.233162 C168.304333,300.747357 168.603987,300.260465 169.087544,300.145263 C171.766038,299.508391 174.407752,298.743276 177.005112,297.862958 Z M251.005217,272.429713 C250.755325,272.12758 250.599548,271.776539 250.590894,271.489621 C250.561686,270.495188 250.80076,269.801802 251.318934,269.465977 C251.578561,269.297522 251.894442,269.225792 252.255757,269.239921 C253.110366,269.271438 254.480984,270.928826 254.355498,271.778713 C254.303572,272.138448 254.17484,272.437321 253.962811,272.663378 C253.538752,273.113318 252.817203,273.221999 251.849007,273.011158 C251.570989,272.950296 251.255108,272.731847 251.005217,272.429713 Z M248.253702,270.206422 C247.939985,270.057529 247.610041,269.753222 247.370967,269.385879 C246.515277,268.074097 245.975468,266.862302 245.832672,265.853741 C245.759111,265.342939 245.792646,264.915822 245.918133,264.571303 C246.21346,263.758368 248.056818,264.856048 248.704806,266.170003 C248.970924,266.711235 249.165645,267.232905 249.27815,267.730665 C249.498834,268.707709 249.378756,269.514123 248.946043,270.147734 C248.820556,270.331406 248.563092,270.353142 248.253702,270.206422 Z M245.556169,269.972106 C245.324667,270.085134 244.941716,270.00471 244.521985,269.743875 C242.956645,268.770092 241.494075,267.534387 240.310604,266.103055 C239.685334,265.346634 239.183387,264.5913 238.804763,263.853355 C237.883084,262.056855 239.930899,261.905788 241.670405,263.444714 C242.349765,264.045721 242.967463,264.677158 243.513763,265.33794 C244.550111,266.591034 245.272742,267.883253 245.715191,269.199382 C245.841759,269.574333 245.782261,269.861251 245.556169,269.972106 Z M244.506407,272.373308 C244.541024,272.754779 244.345221,273.03735 243.966597,273.127555 C242.504027,273.474248 240.710431,273.374261 238.650717,272.674355 C237.494291,272.280929 236.331375,271.724481 235.189012,271.023487 C232.182738,269.180255 232.7907,266.324113 235.728822,266.904471 C236.80195,267.116399 237.850198,267.442442 238.872482,267.885862 C240.702859,268.678147 242.349332,269.809519 243.819475,271.184336 C244.219734,271.559286 244.472872,271.998358 244.506407,272.373308 Z M246.325749,276.333107 C246.654611,276.73088 246.832023,277.230813 246.796325,277.688361 C246.662183,279.441389 246.067203,281.036828 244.868588,282.308398 C244.175165,283.043083 243.314066,283.638656 242.291781,284.087509 C239.412076,285.351471 236.233798,281.508505 237.998186,278.895809 C238.624538,277.968759 239.365559,277.226466 240.211513,276.676539 C241.675165,275.726666 243.346519,275.431053 245.086026,275.619071 C245.540375,275.669065 245.996887,275.935334 246.325749,276.333107 Z M249.866965,278.856792 C250.227198,278.958953 250.61015,279.288257 250.904394,279.753412 C251.980768,281.457533 252.785615,283.289898 253.2259,285.243986 C253.471465,286.335145 253.599115,287.429564 253.609933,288.528331 C253.640223,291.536626 250.732391,291.61379 249.479687,288.306621 C249.003702,287.050267 248.671595,285.799347 248.49851,284.584291 C248.191283,282.422622 248.422785,280.632643 249.029665,279.251305 C249.187605,278.893744 249.50024,278.753545 249.866965,278.856792 Z M252.409911,278.261328 C252.560279,278.058094 252.851279,278.051574 253.195286,278.245026 C254.401473,278.924284 255.5341,279.875244 256.570448,281.127251 C257.11783,281.78912 257.621941,282.514023 258.084944,283.294354 C259.271659,285.295175 258.749158,287.289474 257.160019,286.050509 C256.507704,285.541881 255.859717,284.90827 255.234446,284.151848 C254.050976,282.720517 253.109825,281.050087 252.443447,279.32423 C252.264953,278.862335 252.256298,278.468909 252.409911,278.261328 Z M252.675922,275.554732 C252.589379,275.222168 252.657532,274.972201 252.860907,274.880909 C253.558657,274.570081 254.371075,274.599424 255.286264,274.996111 C255.752512,275.198258 256.227415,275.486263 256.707726,275.848171 C257.87497,276.729576 258.611664,278.751046 257.762464,278.893418 C257.401149,278.95428 256.978172,278.90972 256.491369,278.743438 C255.530746,278.417394 254.443555,277.66206 253.316337,276.577422 C253.001538,276.274202 252.763546,275.891644 252.675922,275.554732 Z M251.180357,277.077573 C250.311686,277.802476 248.552707,277.117785 247.253486,275.547342 C245.954265,273.975812 245.605931,272.113016 246.475684,271.388113 C247.344356,270.663209 249.102253,271.347901 250.401474,272.919431 C251.700695,274.489874 252.049029,276.352669 251.180357,277.077573 Z M229.696982,296.211919 C228.14286,292.613654 224.394457,291.590836 221.324777,293.927045 C222.878899,297.524342 226.627302,298.547159 229.696982,296.211919 Z M198.6293,278.818319 C195.273609,280.129014 194.201563,283.562253 196.234233,286.487951 C199.589923,285.178342 200.661969,281.744017 198.6293,278.818319 Z" id="Combined-Shape" fill="#F64386" transform="translate(202.391002, 280.419287) rotate(-1.000000) translate(-202.391002, -280.419287) "></path>
                <path d="M177.708333,73.9712247 L176.284056,74.1715183 L177.377978,81.525828 C177.494147,82.3175768 177.342886,83.0138916 176.937505,83.5393677 C176.512763,84.0919424 175.80728,84.4512927 174.894871,84.5797163 C173.085784,84.834207 171.886584,83.9823701 171.639725,82.3340715 L170.548223,74.9797618 L169.123945,75.1800554 L170.217868,82.5355433 C170.533702,84.6680811 172.094719,85.9935534 174.292245,85.9935534 C174.553625,85.9935534 174.823475,85.9747023 175.096956,85.9346436 C176.353031,85.7590921 177.370718,85.2289032 178.038688,84.4029866 C178.712709,83.5700009 178.976509,82.5060884 178.799836,81.3243562 L177.708333,73.9712247 Z M223.860007,82.0595515 C223.442526,83.4616067 222.169509,84.1390703 220.696828,83.7290576 C219.963513,83.5216948 219.412921,83.1199294 219.105558,82.5649983 C218.803035,82.020671 218.752211,81.3667713 218.957927,80.6751693 C219.289492,79.5594161 220.146237,78.8937344 221.24863,78.8937344 C221.523321,78.8937344 221.808902,78.9349713 222.100534,79.016267 C223.569585,79.4309925 224.277489,80.6539617 223.860007,82.0595515 L223.860007,82.0595515 Z M222.491394,77.7002202 C222.071492,77.5812222 221.64917,77.5223124 221.235319,77.5223124 C219.477056,77.5223124 218.06851,78.5791556 217.561482,80.2816512 C216.927394,82.414189 218.080611,84.417125 220.305969,85.0451043 C220.479012,85.0934104 220.655685,85.1334692 220.833569,85.1617459 L217.119798,88.1331604 L218.73043,88.5855883 L223.875738,84.4725003 C224.532818,83.9646971 224.991442,83.2836989 225.240721,82.4483567 C225.550505,81.4091864 225.441596,80.3617687 224.934568,79.4957934 C224.43359,78.6416001 223.565955,78.0041952 222.491394,77.7002202 L222.491394,77.7002202 Z M193.984062,78.3588327 C192.414573,77.7991888 191.528786,77.4315911 191.562669,76.3700351 C191.597762,75.3320429 192.432725,74.6616485 193.69364,74.6616485 L193.804968,74.6640049 C195.328473,74.712311 196.003704,75.6419089 196.301387,76.4136284 L196.422396,76.7234944 L197.685731,76.0908022 L197.588924,75.8433807 C196.981458,74.30112 195.582592,73.3479581 193.848532,73.293761 L193.69606,73.2914046 C191.642535,73.2914046 190.166224,74.5520761 190.108139,76.3558967 C190.040374,78.4224554 191.798637,79.0386527 193.706951,79.7066908 C195.474894,80.315819 196.309857,80.7835634 196.277185,81.8050608 C196.239672,82.9172794 195.355095,83.5806047 193.907826,83.5806047 L193.750514,83.5782483 C192.176185,83.5299422 191.128246,82.8065288 190.800311,81.5399663 L190.705924,81.1711905 L189.412337,81.8580797 L189.480102,82.0854718 C189.99076,83.8127096 191.57114,84.8836913 193.705741,84.9484921 L193.901776,84.9520267 C196.167067,84.9520267 197.67,83.7278794 197.731715,81.8345157 C197.80069,79.7184728 195.773787,78.9962376 193.984062,78.3588327 L193.984062,78.3588327 Z M209.369163,76.0189322 L209.484122,77.3290879 L212.036204,77.0451423 L210.137571,86.5897214 L211.549748,86.8559941 L213.758164,75.7561941 L212.716276,75.5617915 L209.369163,76.0189322 Z M183.347359,73.5953796 L183.947564,84.894295 L185.385153,84.822425 L184.783737,73.5235095 L183.347359,73.5953796 Z M163.49097,81.7638239 C163.198128,82.2633797 162.69231,82.628621 162.066692,82.7912122 L159.547282,83.4498247 L158.345661,79.0928498 L160.863862,78.4330591 C162.151399,78.1008074 163.333658,78.7782711 163.682164,80.0412989 C163.851577,80.6527835 163.782602,81.2642681 163.49097,81.7638239 L163.49097,81.7638239 Z M161.553614,76.9874106 C161.206317,76.9874106 160.851761,77.0333603 160.503254,77.1252598 L156.594659,78.1467571 L159.607787,89.0733621 L160.996972,88.7104772 L159.907889,84.7588023 L162.426089,84.1001898 C163.428045,83.8386299 164.247277,83.2448183 164.732524,82.4271492 C165.21656,81.6130146 165.336359,80.6374669 165.072559,79.6784141 C164.622405,78.0430757 163.240481,76.9874106 161.553614,76.9874106 L161.553614,76.9874106 Z M140.184611,95.5475582 L137.540561,96.9260494 L133.371796,89.3455257 L136.017056,87.9670345 C136.620891,87.6512775 137.253769,87.493399 137.901168,87.493399 C139.425883,87.493399 140.876783,88.4100368 141.688754,89.8874967 C142.895215,92.0836571 142.263547,94.4647945 140.184611,95.5475582 L140.184611,95.5475582 Z M137.914479,86.1349372 C137.031112,86.1349372 136.171948,86.3493691 135.359976,86.7711639 L131.446541,88.8118022 L136.928255,98.7840671 L140.84169,96.7434288 C143.601908,95.3036712 144.507057,92.0754097 142.943619,89.233597 C141.893259,87.3225604 139.966794,86.1349372 137.914479,86.1349372 L137.914479,86.1349372 Z M245.277414,90.4070818 C244.949479,91.0020716 244.398888,91.3296106 243.724867,91.3296106 C243.331587,91.3296106 242.910475,91.2176818 242.505095,91.0056062 C241.561223,90.5131196 240.879942,89.5234336 241.484988,88.4253534 C241.825023,87.8056214 242.359884,87.4792607 243.027854,87.4792607 C243.419924,87.4792607 243.847086,87.594724 244.265777,87.8126906 C244.82484,88.1037054 245.218119,88.494867 245.404473,88.9437603 C245.599298,89.4103266 245.555735,89.901635 245.277414,90.4070818 L245.277414,90.4070818 Z M243.089569,95.0892393 C242.495414,96.1696465 241.298633,96.3758311 239.938491,95.6630215 C239.252369,95.3048494 238.776803,94.8512433 238.560197,94.3481529 C238.347221,93.8509535 238.389574,93.3266556 238.688466,92.7882193 C239.043023,92.1437452 239.605716,91.803246 240.314829,91.803246 C240.783135,91.803246 241.293793,91.9458079 241.832284,92.2273972 C242.518406,92.5855693 242.993971,93.0403536 243.211788,93.5422658 C243.424764,94.0371088 243.383621,94.5578721 243.089569,95.0892393 L243.089569,95.0892393 Z M244.931328,86.6038598 C244.306921,86.2774991 243.63774,86.1066604 242.997602,86.1066604 C241.792351,86.1066604 240.806126,86.694581 240.215602,87.7620281 C239.735195,88.6350726 239.723095,89.603551 240.164778,90.4860211 C238.958317,90.5249016 237.957571,91.1151786 237.40456,92.1178248 C236.909632,93.0179678 236.847918,93.9581695 237.229096,94.837105 C237.582443,95.6547741 238.289136,96.3581581 239.272941,96.8718523 C240.011096,97.2583011 240.780714,97.4621293 241.495878,97.4621293 C242.744693,97.4621293 243.76722,96.8577139 244.373476,95.7584555 C244.928908,94.7499183 244.873243,93.609423 244.243996,92.6173806 C245.244741,92.4866007 246.067603,91.9375606 246.5468,91.0692289 C247.61168,89.1369848 246.456043,87.4003214 244.931328,86.6038598 L244.931328,86.6038598 Z M150.169074,90.9584783 L148.801671,87.5393487 L153.493195,85.7614485 L152.989797,84.4995988 L148.298273,86.2751427 L146.965962,82.9420215 L152.024144,81.025094 L151.517116,79.7632443 L145.120573,82.187975 L149.332901,92.7281312 L155.80447,90.2763019 L155.301072,89.0144522 L150.169074,90.9584783 Z M233.146248,87.7950176 C233.393107,88.3711563 233.376165,89.025056 233.099055,89.6907377 C232.546043,91.0197446 231.18106,91.5723193 229.783404,91.0209228 C228.374858,90.4636353 227.806115,89.1782217 228.371228,87.8232944 C228.787499,86.825361 229.59463,86.2527569 230.583275,86.2527569 C230.937831,86.2527569 231.305699,86.3269834 231.678407,86.4730799 C232.387521,86.7546691 232.893339,87.2106316 233.146248,87.7950176 L233.146248,87.7950176 Z M234.162725,81.8474759 L228.595095,85.4150584 C227.888401,85.8545261 227.359591,86.4860401 227.024396,87.2919272 C226.605704,88.2945734 226.603284,89.3478821 227.014715,90.2586289 C227.422516,91.1587719 228.218756,91.8810071 229.255804,92.2898417 C229.801556,92.5054518 230.356988,92.6150242 230.903949,92.6150242 C232.487958,92.6150242 233.805748,91.7184158 234.431365,90.2162138 C234.852477,89.2076766 234.857317,88.1496551 234.445886,87.2377302 C234.039295,86.3352308 233.244265,85.6141738 232.206007,85.204161 C232.042645,85.1393601 231.879282,85.0863412 231.71108,85.0403915 L235.717692,82.4601387 L234.162725,81.8474759 Z" id="Fill-1" fill="#F64386"></path>
            </g>
        </g>
    </g>
</svg>