<?xml version="1.0" encoding="UTF-8"?>
<svg width="2234px" height="1849px" viewBox="0 0 2234 1849" version="1.1" xmlns="http://www.w3.org/2000/svg" xmlns:xlink="http://www.w3.org/1999/xlink">
    <!-- Generator: Sketch 42 (36781) - http://www.bohemiancoding.com/sketch -->
    <title>Rectangle</title>
    <desc>Created with Sketch.</desc>
    <defs></defs>
    <g id="Page-1" stroke="none" stroke-width="1" fill="none" fill-rule="evenodd">
        <path d="M2047,1271.05744 L2047,1270.63515 L2047.00004,1270.63491 C1835.25712,1360.17576 1602.47934,1409.71607 1358.13881,1409.78356 C1358.30548,1409.7836 1358.47215,1409.78363 1358.63882,1409.78363 C1602.77717,1409.78363 1835.37982,1360.39259 2047,1271.05744 Z M1023.5,1849 L-0.999997978,1849 L-0.999997978,775.060505 C298.851643,1133.09852 737.596012,1370.84784 1232.34713,1405.42106 C1010.53634,1505.37697 764.444378,1561 505.361181,1561 C329.768476,1561 160.143165,1535.45011 0,1487.86513 L2.02169758e-06,1487.86515 L2.02169758e-06,1849 L1023.5,1849 Z" id="Combined-Shape" fill="#7AD04C"></path>
        <path d="M2235,1178.15631 L2235,173.555153 L2235,173.55515 C2086.45141,845.780348 1556.02572,1374.55007 882.905158,1520.67797 C1004.56261,1494.26732 1121.55886,1455.35742 1232.48178,1405.36038 C1274.15288,1408.29269 1316.22174,1409.78363 1358.63882,1409.78363 C1677.44135,1409.78363 1976.57337,1325.56277 2235,1178.15631 Z" id="Combined-Shape" fill="#F64386"></path>
    </g>
</svg>